<svg xmlns="http://www.w3.org/2000/svg" viewBox="0 0 750 1050" width="750" height="1050">
<defs><clipPath id="art-window"><rect x="60" y="150" width="630" height="600" rx="24"/></clipPath></defs>
<rect x="0" y="0" width="750" height="1050" rx="48" fill="#eee8d5"/>
<rect x="60" y="60" width="34" height="34" rx="9" fill="#0F6E56"/>
<text x="108" y="87" font-family="'Atkinson Hyperlegible','Atkinson Hyperlegible Next',sans-serif" font-size="30" font-weight="500" fill="#04342C">what helps</text>
<!-- The clip lives on an untransformed group: a clip-path resolves in the
     element's own user space, so putting both on one <g> would clip against
     the moved coordinates and shear the top off every picture. -->
<rect id="art" x="60" y="150" width="630" height="600" rx="24" fill="#fdf6e3"/>
<g id="art-illustration" clip-path="url(#art-window)"><g transform="translate(60 178)"><g stroke-linecap="round" stroke-linejoin="round"><rect x="40.0" y="440.0" width="550.0" height="14.0" rx="7.0" fill="#0F6E56" fill-opacity="0.13"/><line x1="40.0" y1="447.0" x2="590.0" y2="447.0" stroke-opacity="0.45" fill="none" stroke="#0F6E56" stroke-width="3"/><line x1="101.0" y1="344.0" x2="175.0" y2="344.0" fill="none" stroke="#04342C" stroke-width="9"/><polyline points="161.3,352.2 175.0,344.0 161.3,335.8" fill="none" stroke="#04342C" stroke-width="9"/><line x1="529.0" y1="344.0" x2="455.0" y2="344.0" fill="none" stroke="#04342C" stroke-width="9"/><polyline points="468.7,335.8 455.0,344.0 468.7,352.2" fill="none" stroke="#04342C" stroke-width="9"/><path d="M273.0 440.0 Q273.0 328.0 315.0 328.0 Q357.0 328.0 357.0 440.0 Z" fill="#04342C" fill-opacity="1.0"/><circle cx="315.0" cy="284.0" r="31.0" fill="#04342C" fill-opacity="1.0"/><path d="M207.0 292 Q315.0 266 423.0 292 L433.0 398 Q315.0 424 197.0 398 Z" fill="#0F6E56" fill-opacity="0.65"/><line x1="197.0" y1="290.0" x2="197.0" y2="396.0" stroke-opacity="0.35" fill="none" stroke="#04342C" stroke-width="4"/><line x1="256.0" y1="295.0" x2="256.0" y2="402.0" stroke-opacity="0.35" fill="none" stroke="#04342C" stroke-width="4"/><line x1="315.0" y1="300.0" x2="315.0" y2="408.0" stroke-opacity="0.35" fill="none" stroke="#04342C" stroke-width="4"/><line x1="374.0" y1="295.0" x2="374.0" y2="402.0" stroke-opacity="0.35" fill="none" stroke="#04342C" stroke-width="4"/><line x1="433.0" y1="290.0" x2="433.0" y2="396.0" stroke-opacity="0.35" fill="none" stroke="#04342C" stroke-width="4"/></g></g></g>
<rect x="60" y="150" width="630" height="600" rx="24" fill="none" stroke="#0F6E56" stroke-width="3"/>
<text x="375" y="726" text-anchor="middle" font-family="'Atkinson Hyperlegible','Atkinson Hyperlegible Next',sans-serif" font-size="17" fill="#93a1a1" letter-spacing="2">PLACEHOLDER ART · HUMAN ART WANTED</text>
<text x="60" y="852" font-family="'Atkinson Hyperlegible','Atkinson Hyperlegible Next',sans-serif" font-size="58" font-weight="700" fill="#002b36">a big squeeze</text>
<text x="60" y="916" font-family="'Atkinson Hyperlegible','Atkinson Hyperlegible Next',sans-serif" font-size="29" fill="#586e75">Firm pressure that steadies me.</text>
</svg>
