<svg xmlns="http://www.w3.org/2000/svg" viewBox="0 0 750 1050" width="750" height="1050">
<defs><clipPath id="art-window"><rect x="60" y="150" width="630" height="600" rx="24"/></clipPath></defs>
<rect x="0" y="0" width="750" height="1050" rx="48" fill="#eee8d5"/>
<rect x="60" y="60" width="34" height="34" rx="9" fill="#0F6E56"/>
<text x="108" y="87" font-family="'Atkinson Hyperlegible','Atkinson Hyperlegible Next',sans-serif" font-size="30" font-weight="500" fill="#04342C">what helps</text>
<!-- The clip lives on an untransformed group: a clip-path resolves in the
     element's own user space, so putting both on one <g> would clip against
     the moved coordinates and shear the top off every picture. -->
<rect id="art" x="60" y="150" width="630" height="600" rx="24" fill="#fdf6e3"/>
<g id="art-illustration" clip-path="url(#art-window)"><g transform="translate(60 185)"><g stroke-linecap="round" stroke-linejoin="round"><path d="M243.0 234 q24 -32 0 -62 q-24 -30 0 -58" stroke-opacity="0.7" fill="none" stroke="#0F6E56" stroke-width="6"/><path d="M295.0 234 q24 -32 0 -62 q-24 -30 0 -58" stroke-opacity="0.5599999999999999" fill="none" stroke="#0F6E56" stroke-width="6"/><path d="M347.0 234 q24 -32 0 -62 q-24 -30 0 -58" stroke-opacity="0.41999999999999993" fill="none" stroke="#0F6E56" stroke-width="6"/><line x1="295.0" y1="348.0" x2="295.0" y2="268.0" fill="none" stroke="#04342C" stroke-width="8"/><path d="M295.0 306 q-36 -10 -48 -44" fill="none" stroke="#04342C" stroke-width="8"/><path d="M295.0 290 q36 -12 48 -46" fill="none" stroke="#04342C" stroke-width="8"/><path d="M231.0 348 L247.0 436 Q295.0 450 343.0 436 L359.0 348 Z" fill="#0F6E56" fill-opacity="0.55"/><line x1="219.0" y1="348.0" x2="371.0" y2="348.0" fill="none" stroke="#04342C" stroke-width="11"/><path d="M523.0 452 q22 -44 4 -76" stroke-opacity="0.7" fill="none" stroke="#0F6E56" stroke-width="30"/><g transform="translate(465.0 344.0) rotate(-38) scale(0.780)"><rect x="-46.0" y="-74.0" width="21.0" height="108.0" rx="10.5" fill="#0F6E56" fill-opacity="0.8"/><rect x="-46.0" y="-74.0" width="21.0" height="108.0" rx="10.5" fill="none" stroke="#04342C" stroke-width="5"/><rect x="-22.0" y="-86.0" width="21.0" height="120.0" rx="10.5" fill="#0F6E56" fill-opacity="0.8"/><rect x="-22.0" y="-86.0" width="21.0" height="120.0" rx="10.5" fill="none" stroke="#04342C" stroke-width="5"/><rect x="2.0" y="-80.0" width="21.0" height="114.0" rx="10.5" fill="#0F6E56" fill-opacity="0.8"/><rect x="2.0" y="-80.0" width="21.0" height="114.0" rx="10.5" fill="none" stroke="#04342C" stroke-width="5"/><rect x="26.0" y="-68.0" width="21.0" height="102.0" rx="10.5" fill="#0F6E56" fill-opacity="0.8"/><rect x="26.0" y="-68.0" width="21.0" height="102.0" rx="10.5" fill="none" stroke="#04342C" stroke-width="5"/><rect x="-50.0" y="-14.0" width="106.0" height="96.0" rx="34.0" fill="#0F6E56" fill-opacity="0.8"/><rect x="-50.0" y="-14.0" width="106.0" height="96.0" rx="34.0" fill="none" stroke="#04342C" stroke-width="6"/><g transform="translate(64 34) rotate(42)"><rect x="-16.0" y="-22.0" width="32.0" height="84.0" rx="16.0" fill="#0F6E56" fill-opacity="0.8"/><rect x="-16.0" y="-22.0" width="32.0" height="84.0" rx="16.0" fill="none" stroke="#04342C" stroke-width="6"/></g></g></g></g></g>
<rect x="60" y="150" width="630" height="600" rx="24" fill="none" stroke="#0F6E56" stroke-width="3"/>
<text x="60" y="852" font-family="'Atkinson Hyperlegible','Atkinson Hyperlegible Next',sans-serif" font-size="58" font-weight="700" fill="#002b36">a smell that helps</text>
<text x="60" y="916" font-family="'Atkinson Hyperlegible','Atkinson Hyperlegible Next',sans-serif" font-size="29" fill="#586e75">A smell that settles me, or less of</text><text x="60" y="950" font-family="'Atkinson Hyperlegible','Atkinson Hyperlegible Next',sans-serif" font-size="29" fill="#586e75">one.</text>
</svg>
