<svg xmlns="http://www.w3.org/2000/svg" viewBox="0 0 750 1050" width="750" height="1050">
<defs><clipPath id="art-window"><rect x="60" y="150" width="630" height="600" rx="24"/></clipPath></defs>
<rect x="0" y="0" width="750" height="1050" rx="48" fill="#eee8d5"/>
<rect x="60" y="60" width="34" height="34" rx="9" fill="#0F6E56"/>
<text x="108" y="87" font-family="'Atkinson Hyperlegible','Atkinson Hyperlegible Next',sans-serif" font-size="30" font-weight="500" fill="#04342C">what helps</text>
<!-- The clip lives on an untransformed group: a clip-path resolves in the
     element's own user space, so putting both on one <g> would clip against
     the moved coordinates and shear the top off every picture. -->
<rect id="art" x="60" y="150" width="630" height="600" rx="24" fill="#fdf6e3"/>
<g id="art-illustration" clip-path="url(#art-window)"><g transform="translate(60 178)"><g stroke-linecap="round" stroke-linejoin="round"><path d="M197.0 226 q18 -26 0 -50" stroke-opacity="0.6" fill="none" stroke="#0F6E56" stroke-width="5"/><path d="M245.0 226 q18 -26 0 -50" stroke-opacity="0.6" fill="none" stroke="#0F6E56" stroke-width="5"/><path d="M293.0 226 q18 -26 0 -50" stroke-opacity="0.6" fill="none" stroke="#0F6E56" stroke-width="5"/><path d="M163.0 262 L185.0 420 Q241.0 440 297.0 420 L319.0 262 Z" fill="#0F6E56" fill-opacity="0.5"/><path d="M163.0 262 L185.0 420 Q241.0 440 297.0 420 L319.0 262 Z" fill="none" stroke="#04342C" stroke-width="11"/><line x1="151.0" y1="262.0" x2="331.0" y2="262.0" fill="none" stroke="#04342C" stroke-width="11"/><circle cx="441.0" cy="376.0" r="62.0" fill="#0F6E56" fill-opacity="0.55"/><circle cx="441.0" cy="376.0" r="62.0" fill="none" stroke="#04342C" stroke-width="11"/><circle cx="419.0" cy="356.0" r="9.0" fill="#04342C"/><circle cx="465.0" cy="372.0" r="9.0" fill="#04342C"/><circle cx="431.0" cy="404.0" r="9.0" fill="#04342C"/></g></g></g>
<rect x="60" y="150" width="630" height="600" rx="24" fill="none" stroke="#0F6E56" stroke-width="3"/>
<text x="375" y="726" text-anchor="middle" font-family="'Atkinson Hyperlegible','Atkinson Hyperlegible Next',sans-serif" font-size="17" fill="#93a1a1" letter-spacing="2">PLACEHOLDER ART · HUMAN ART WANTED</text>
<text x="60" y="852" font-family="'Atkinson Hyperlegible','Atkinson Hyperlegible Next',sans-serif" font-size="58" font-weight="700" fill="#002b36">a snack or a drink</text>
<text x="60" y="916" font-family="'Atkinson Hyperlegible','Atkinson Hyperlegible Next',sans-serif" font-size="29" fill="#586e75">Something to eat or drink.</text>
</svg>
