<svg xmlns="http://www.w3.org/2000/svg" viewBox="0 0 750 1050" width="750" height="1050">
<defs><clipPath id="art-window"><rect x="60" y="150" width="630" height="600" rx="24"/></clipPath></defs>
<rect x="0" y="0" width="750" height="1050" rx="48" fill="#eee8d5"/>
<rect x="60" y="60" width="34" height="34" rx="9" fill="#0F6E56"/>
<text x="108" y="87" font-family="'Atkinson Hyperlegible','Atkinson Hyperlegible Next',sans-serif" font-size="30" font-weight="500" fill="#04342C">what helps</text>
<!-- The clip lives on an untransformed group: a clip-path resolves in the
     element's own user space, so putting both on one <g> would clip against
     the moved coordinates and shear the top off every picture. -->
<rect id="art" x="60" y="150" width="630" height="600" rx="24" fill="#fdf6e3"/>
<g id="art-illustration" clip-path="url(#art-window)"><g transform="translate(60 185)"><g stroke-linecap="round" stroke-linejoin="round"><line x1="54.0" y1="420.0" x2="340.0" y2="420.0" stroke-opacity="0.32" fill="none" stroke="#04342C" stroke-width="6"/><path d="M60 420 q116 -26 232 -2 q92 9 186 -2" stroke-opacity="0.24" fill="none" stroke="#0F6E56" stroke-width="20"/><rect x="89.0" y="322.0" width="54.0" height="96.0" rx="13.0" fill="#0F6E56" fill-opacity="0.34"/><line x1="82.0" y1="322.0" x2="150.0" y2="322.0" fill="none" stroke="#04342C" stroke-width="6"/><rect x="185.0" y="322.0" width="54.0" height="96.0" rx="13.0" fill="#0F6E56" fill-opacity="0.34"/><line x1="178.0" y1="322.0" x2="246.0" y2="322.0" fill="none" stroke="#04342C" stroke-width="6"/><rect x="281.0" y="322.0" width="54.0" height="96.0" rx="13.0" fill="#0F6E56" fill-opacity="0.34"/><line x1="274.0" y1="322.0" x2="342.0" y2="322.0" fill="none" stroke="#04342C" stroke-width="6"/><path d="M352 420 C452 418 500 350 506 268 C509 232 508 214 506 198" fill="none" stroke="#0F6E56" stroke-width="15"/><path d="M506 88 Q524.6 131.4 568 150 Q524.6 168.6 506 212 Q487.4 168.6 444 150 Q487.4 131.4 506 88 Z" fill="#0F6E56"/><path d="M506 124 Q513.8 142.2 532 150 Q513.8 157.8 506 176 Q498.2 157.8 480 150 Q498.2 142.2 506 124 Z" fill="#fdf6e3"/><line x1="381.0" y1="232.0" x2="427.0" y2="232.0" fill="none" stroke="#0F6E56" stroke-width="6"/><line x1="404.0" y1="209.0" x2="404.0" y2="255.0" fill="none" stroke="#0F6E56" stroke-width="6"/><line x1="573.0" y1="266.0" x2="607.0" y2="266.0" fill="none" stroke="#0F6E56" stroke-width="6"/><line x1="590.0" y1="249.0" x2="590.0" y2="283.0" fill="none" stroke="#0F6E56" stroke-width="6"/><line x1="415.0" y1="322.0" x2="441.0" y2="322.0" fill="none" stroke="#0F6E56" stroke-width="5"/><line x1="428.0" y1="309.0" x2="428.0" y2="335.0" fill="none" stroke="#0F6E56" stroke-width="5"/></g></g></g>
<rect x="60" y="150" width="630" height="600" rx="24" fill="none" stroke="#0F6E56" stroke-width="3"/>
<text x="60" y="852" font-family="'Atkinson Hyperlegible','Atkinson Hyperlegible Next',sans-serif" font-size="58" font-weight="700" fill="#002b36">something different</text>
<text x="60" y="916" font-family="'Atkinson Hyperlegible','Atkinson Hyperlegible Next',sans-serif" font-size="29" fill="#586e75">Something different from before.</text>
</svg>
