<svg xmlns="http://www.w3.org/2000/svg" viewBox="0 0 750 1050" width="750" height="1050">
<defs><clipPath id="art-window"><rect x="60" y="150" width="630" height="600" rx="24"/></clipPath></defs>
<rect x="0" y="0" width="750" height="1050" rx="48" fill="#eee8d5"/>
<rect x="60" y="60" width="34" height="34" rx="9" fill="#0F6E56"/>
<text x="108" y="87" font-family="'Atkinson Hyperlegible','Atkinson Hyperlegible Next',sans-serif" font-size="30" font-weight="500" fill="#04342C">what helps</text>
<!-- The clip lives on an untransformed group: a clip-path resolves in the
     element's own user space, so putting both on one <g> would clip against
     the moved coordinates and shear the top off every picture. -->
<rect id="art" x="60" y="150" width="630" height="600" rx="24" fill="#fdf6e3"/>
<g id="art-illustration" clip-path="url(#art-window)"><g transform="translate(60 185)"><g stroke-linecap="round" stroke-linejoin="round"><path d="M84 212 q84 -26 168 0 l0 208 q-84 26 -168 0 Z" fill="#0F6E56" fill-opacity="0.6"/><path d="M84 212 q84 -26 168 0 l0 208 q-84 26 -168 0 Z" fill="none" stroke="#04342C" stroke-width="6"/><line x1="84.0" y1="254.0" x2="252.0" y2="228.0" stroke-opacity="0.3" fill="none" stroke="#04342C" stroke-width="4"/><line x1="84.0" y1="298.0" x2="252.0" y2="272.0" stroke-opacity="0.3" fill="none" stroke="#04342C" stroke-width="4"/><line x1="84.0" y1="342.0" x2="252.0" y2="316.0" stroke-opacity="0.3" fill="none" stroke="#04342C" stroke-width="4"/><line x1="84.0" y1="386.0" x2="252.0" y2="360.0" stroke-opacity="0.3" fill="none" stroke="#04342C" stroke-width="4"/><g transform="translate(452 276)"><g transform="rotate(0)"><path d="M0 -16 q64 -46 92 -8 q22 30 -16 34 q-40 4 -76 -26 Z" fill="#0F6E56" fill-opacity="0.7"/></g><g transform="rotate(120)"><path d="M0 -16 q64 -46 92 -8 q22 30 -16 34 q-40 4 -76 -26 Z" fill="#0F6E56" fill-opacity="0.7"/></g><g transform="rotate(240)"><path d="M0 -16 q64 -46 92 -8 q22 30 -16 34 q-40 4 -76 -26 Z" fill="#0F6E56" fill-opacity="0.7"/></g><circle cx="0.0" cy="0.0" r="20.0" fill="#04342C"/><circle cx="0.0" cy="0.0" r="120.0" fill="none" stroke="#04342C" stroke-width="6"/></g><rect x="444.0" y="396.0" width="16.0" height="62.0" rx="8.0" fill="#04342C"/><rect x="406.0" y="452.0" width="92.0" height="16.0" rx="8.0" fill="#04342C"/></g></g></g>
<rect x="60" y="150" width="630" height="600" rx="24" fill="none" stroke="#0F6E56" stroke-width="3"/>
<text x="60" y="852" font-family="'Atkinson Hyperlegible','Atkinson Hyperlegible Next',sans-serif" font-size="58" font-weight="700" fill="#002b36">the right</text><text x="60" y="912" font-family="'Atkinson Hyperlegible','Atkinson Hyperlegible Next',sans-serif" font-size="58" font-weight="700" fill="#002b36">temperature</text>
<text x="60" y="976" font-family="'Atkinson Hyperlegible','Atkinson Hyperlegible Next',sans-serif" font-size="29" fill="#586e75">Warmer, or cooler.</text>
</svg>
