<svg xmlns="http://www.w3.org/2000/svg" viewBox="0 0 750 1050" width="750" height="1050">
<defs><clipPath id="art-window"><rect x="60" y="150" width="630" height="600" rx="24"/></clipPath></defs>
<rect x="0" y="0" width="750" height="1050" rx="48" fill="#eee8d5"/>
<rect x="60" y="60" width="34" height="34" rx="9" fill="#534AB7"/>
<text x="108" y="87" font-family="'Atkinson Hyperlegible','Atkinson Hyperlegible Next',sans-serif" font-size="30" font-weight="500" fill="#26215C">places</text>
<!-- The clip lives on an untransformed group: a clip-path resolves in the
     element's own user space, so putting both on one <g> would clip against
     the moved coordinates and shear the top off every picture. -->
<rect id="art" x="60" y="150" width="630" height="600" rx="24" fill="#fdf6e3"/>
<g id="art-illustration" clip-path="url(#art-window)"><g transform="translate(60 185)"><g stroke-linecap="round" stroke-linejoin="round"><path d="M129.0 430 L129.0 276 Q315.0 96 501.0 276 L501.0 430 Z" fill="#26215C"/><path d="M187.0 430 L187.0 292 Q315.0 162 443.0 292 L443.0 430 Z" fill="#534AB7" fill-opacity="0.35"/><path d="M284.8 428.0 Q284.8 347.4 315.0 347.4 Q345.2 347.4 345.2 428.0 Z" fill="#fdf6e3" fill-opacity="1.0"/><circle cx="315.0" cy="315.7" r="22.3" fill="#fdf6e3" fill-opacity="1.0"/><circle cx="399.0" cy="356.0" r="15.0" fill="#fdf6e3" fill-opacity="0.8"/><rect x="40.0" y="430.0" width="550.0" height="14.0" rx="7.0" fill="#534AB7" fill-opacity="0.13"/><line x1="40.0" y1="437.0" x2="590.0" y2="437.0" stroke-opacity="0.45" fill="none" stroke="#534AB7" stroke-width="3"/></g></g></g>
<rect x="60" y="150" width="630" height="600" rx="24" fill="none" stroke="#534AB7" stroke-width="3"/>
<text x="60" y="852" font-family="'Atkinson Hyperlegible','Atkinson Hyperlegible Next',sans-serif" font-size="58" font-weight="700" fill="#002b36">the cave</text>
<text x="60" y="916" font-family="'Atkinson Hyperlegible','Atkinson Hyperlegible Next',sans-serif" font-size="29" fill="#586e75">Somewhere quiet, just for you.</text>
</svg>
