<svg xmlns="http://www.w3.org/2000/svg" viewBox="0 0 750 1050" width="750" height="1050">
<defs><clipPath id="art-window"><rect x="60" y="150" width="630" height="600" rx="24"/></clipPath></defs>
<rect x="0" y="0" width="750" height="1050" rx="48" fill="#eee8d5"/>
<rect x="60" y="60" width="34" height="34" rx="9" fill="#534AB7"/>
<text x="108" y="87" font-family="'Atkinson Hyperlegible','Atkinson Hyperlegible Next',sans-serif" font-size="30" font-weight="500" fill="#26215C">places</text>
<!-- The clip lives on an untransformed group: a clip-path resolves in the
     element's own user space, so putting both on one <g> would clip against
     the moved coordinates and shear the top off every picture. -->
<rect id="art" x="60" y="150" width="630" height="600" rx="24" fill="#fdf6e3"/>
<g id="art-illustration" clip-path="url(#art-window)"><g transform="translate(60 185)"><g stroke-linecap="round" stroke-linejoin="round"><path d="M74 300 Q315.0 110 556 300" stroke-opacity="0.5" fill="none" stroke="#534AB7" stroke-width="5"/><path d="M90 266 Q315.0 70 540 266" stroke-opacity="0.36" fill="none" stroke="#534AB7" stroke-width="5"/><path d="M106 232 Q315.0 30 524 232" stroke-opacity="0.21999999999999997" fill="none" stroke="#534AB7" stroke-width="5"/><path d="M40 328 Q170 244 316 322 Q452 396 590 300 L590 478 L40 478 Z" fill="#534AB7" fill-opacity="0.2"/><path d="M40 404 Q200 350 372 404 Q486 442 590 400 L590 478 L40 478 Z" fill="#26215C" fill-opacity="0.22"/><path d="M62 470 Q60 232 316 218 Q572 232 570 470" stroke-dasharray="20 16" stroke-opacity="0.7" fill="none" stroke="#534AB7" stroke-width="8"/><path d="M112 400 L112 362 Q152 312 192 362 L192 400 Z" fill="#26215C"/><circle cx="152.0" cy="380.0" r="11.0" fill="#fdf6e3"/><path d="M298 400 Q268 366 288 330 Q292 356 306 348 Q296 322 318 306 Q312 348 330 360 Q344 376 330 400 Z" fill="#26215C"/><line x1="262.0" y1="408.0" x2="340.0" y2="408.0" fill="none" stroke="#26215C" stroke-width="9"/><line x1="268.0" y1="416.0" x2="334.0" y2="400.0" fill="none" stroke="#26215C" stroke-width="7"/><ellipse cx="406.0" cy="392.0" rx="56.0" ry="22.0" fill="#26215C" fill-opacity="0.75"/><ellipse cx="406.0" cy="392.0" rx="30.0" ry="12.0" fill="none" stroke="#fdf6e3" stroke-width="4"/><path d="M488 402 L530 388 L572 402 L572 366 L530 352 L488 366 Z" fill="#26215C"/><line x1="530.0" y1="352.0" x2="530.0" y2="388.0" fill="none" stroke="#fdf6e3" stroke-width="4"/></g></g></g>
<rect x="60" y="150" width="630" height="600" rx="24" fill="none" stroke="#534AB7" stroke-width="3"/>
<text x="60" y="852" font-family="'Atkinson Hyperlegible','Atkinson Hyperlegible Next',sans-serif" font-size="58" font-weight="700" fill="#002b36">the habitat</text>
<text x="60" y="916" font-family="'Atkinson Hyperlegible','Atkinson Hyperlegible Next',sans-serif" font-size="29" fill="#586e75">The world around it all — steady,</text><text x="60" y="950" font-family="'Atkinson Hyperlegible','Atkinson Hyperlegible Next',sans-serif" font-size="29" fill="#586e75">sensory-safe.</text>
</svg>
