<svg xmlns="http://www.w3.org/2000/svg" viewBox="0 0 750 1050" width="750" height="1050">
  <!-- Cavendish Cards — Love Locution card back (distinct, so an affirmation is never mistaken for a state or a need). CC0. Font: Atkinson Hyperlegible. -->
  <defs><clipPath id="cardclip"><rect x="0" y="0" width="750" height="1050" rx="48"/></clipPath></defs>
  <g clip-path="url(#cardclip)">
    <rect x="0" y="0" width="750" height="1050" fill="#073642"/>
    <path d="M375 452 C 296 388 250 344 250 300 C 250 264 279 243 307 243 C 338 243 362 268 375 294 C 388 268 412 243 443 243 C 471 243 500 264 500 300 C 500 344 454 388 375 452 Z" fill="#fdf6e3"/>
    <text x="375" y="620" text-anchor="middle" font-family="'Atkinson Hyperlegible','Atkinson Hyperlegible Next',sans-serif" font-size="66" font-weight="700" fill="#fdf6e3">a kind word</text>
    <line x1="320" y1="656" x2="430" y2="656" stroke="#2aa198" stroke-width="4"/>
    <text x="375" y="712" text-anchor="middle" font-family="'Atkinson Hyperlegible','Atkinson Hyperlegible Next',sans-serif" font-size="28" fill="#eee8d5">you don't have to earn it</text>
      <rect x="0.00" y="1000" width="125.60" height="50" fill="#E40303"/>
      <rect x="125.00" y="1000" width="125.60" height="50" fill="#FF8C00"/>
      <rect x="250.00" y="1000" width="125.60" height="50" fill="#FFED00"/>
      <rect x="375.00" y="1000" width="125.60" height="50" fill="#008026"/>
      <rect x="500.00" y="1000" width="125.60" height="50" fill="#004DFF"/>
      <rect x="625.00" y="1000" width="125.60" height="50" fill="#750787"/>
  </g>
</svg>
