<svg xmlns="http://www.w3.org/2000/svg" viewBox="0 0 750 1050" width="750" height="1050">
<defs><clipPath id="art-window"><rect x="60" y="150" width="630" height="600" rx="24"/></clipPath></defs>
<rect x="0" y="0" width="750" height="1050" rx="48" fill="#eee8d5"/>
<rect x="60" y="60" width="34" height="34" rx="9" fill="#3B6D11"/>
<text x="108" y="87" font-family="'Atkinson Hyperlegible','Atkinson Hyperlegible Next',sans-serif" font-size="30" font-weight="500" fill="#173404">lily pad</text>
<!-- The clip lives on an untransformed group: a clip-path resolves in the
     element's own user space, so putting both on one <g> would clip against
     the moved coordinates and shear the top off every picture. -->
<rect id="art" x="60" y="150" width="630" height="600" rx="24" fill="#fdf6e3"/>
<g id="art-illustration" clip-path="url(#art-window)"><g transform="translate(60 178)"><g stroke-linecap="round" stroke-linejoin="round"><rect x="40.0" y="360.0" width="550.0" height="170.0" rx="24.0" fill="#3B6D11" fill-opacity="0.16"/><path d="M80.0 400.0 q30 -14 60 0 q30 14 60 0" stroke-opacity="0.4" fill="none" stroke="#3B6D11" stroke-width="4"/><path d="M120.0 430.0 q30 -14 60 0 q30 14 60 0" stroke-opacity="0.4" fill="none" stroke="#3B6D11" stroke-width="4"/><path d="M80.0 460.0 q30 -14 60 0 q30 14 60 0" stroke-opacity="0.4" fill="none" stroke="#3B6D11" stroke-width="4"/><ellipse cx="315.0" cy="396.0" rx="186.0" ry="78.1" fill="#3B6D11" fill-opacity="0.75"/><path d="M315.0 396.0 L448.9 341.3 L493.6 405.4 Z" fill="#fdf6e3"/><circle cx="183.0" cy="322.0" r="33.0" fill="#173404"/><path d="M209.0 352 q56 -22 112 -8 q44 12 52 -20 q6 -24 30 -18 q22 6 16 30 q-16 56 -78 54 q-70 -2 -132 6 q-26 2 -26 -20 q0 -20 26 -24 Z" fill="#173404"/><path d="M359.0 268.0 l34.0 0 l-34.0 30.0 l34.0 0" fill="none" stroke="#3B6D11" stroke-width="6"/><path d="M399.0 216.0 l28.0 0 l-28.0 25.0 l28.0 0" fill="none" stroke="#3B6D11" stroke-width="5"/><path d="M439.0 164.0 l22.0 0 l-22.0 20.0 l22.0 0" fill="none" stroke="#3B6D11" stroke-width="4"/></g></g></g>
<rect x="60" y="150" width="630" height="600" rx="24" fill="none" stroke="#3B6D11" stroke-width="3"/>
<text x="375" y="726" text-anchor="middle" font-family="'Atkinson Hyperlegible','Atkinson Hyperlegible Next',sans-serif" font-size="17" fill="#93a1a1" letter-spacing="2">PLACEHOLDER ART · HUMAN ART WANTED</text>
<text x="60" y="852" font-family="'Atkinson Hyperlegible','Atkinson Hyperlegible Next',sans-serif" font-size="58" font-weight="700" fill="#002b36">i need a minute</text>
<text x="60" y="916" font-family="'Atkinson Hyperlegible','Atkinson Hyperlegible Next',sans-serif" font-size="29" fill="#586e75">Pausing here. Not leaving.</text>
</svg>
