<svg xmlns="http://www.w3.org/2000/svg" viewBox="0 0 750 1050" width="750" height="1050">
<defs><clipPath id="art-window"><rect x="60" y="150" width="630" height="600" rx="24"/></clipPath></defs>
<rect x="0" y="0" width="750" height="1050" rx="48" fill="#eee8d5"/>
<rect x="60" y="60" width="34" height="34" rx="9" fill="#3B6D11"/>
<text x="108" y="87" font-family="'Atkinson Hyperlegible','Atkinson Hyperlegible Next',sans-serif" font-size="30" font-weight="500" fill="#173404">lily pad</text>
<!-- The clip lives on an untransformed group: a clip-path resolves in the
     element's own user space, so putting both on one <g> would clip against
     the moved coordinates and shear the top off every picture. -->
<rect id="art" x="60" y="150" width="630" height="600" rx="24" fill="#fdf6e3"/>
<g id="art-illustration" clip-path="url(#art-window)"><g transform="translate(60 178)"><g stroke-linecap="round" stroke-linejoin="round"><rect x="40.0" y="394.0" width="550.0" height="136.0" rx="24.0" fill="#3B6D11" fill-opacity="0.16"/><path d="M80.0 434.0 q30 -14 60 0 q30 14 60 0" stroke-opacity="0.4" fill="none" stroke="#3B6D11" stroke-width="4"/><path d="M120.0 464.0 q30 -14 60 0 q30 14 60 0" stroke-opacity="0.4" fill="none" stroke="#3B6D11" stroke-width="4"/><path d="M80.0 494.0 q30 -14 60 0 q30 14 60 0" stroke-opacity="0.4" fill="none" stroke="#3B6D11" stroke-width="4"/><ellipse cx="146.0" cy="424.0" rx="118.0" ry="49.6" fill="#3B6D11" fill-opacity="0.6"/><path d="M146.0 424.0 L231.0 389.3 L259.3 429.9 Z" fill="#fdf6e3"/><ellipse cx="494.0" cy="424.0" rx="118.0" ry="49.6" fill="#3B6D11" fill-opacity="0.6"/><path d="M494.0 424.0 L579.0 389.3 L607.3 429.9 Z" fill="#fdf6e3"/><line x1="238.0" y1="462.0" x2="262.0" y2="462.0" stroke-opacity="0.55" fill="none" stroke="#3B6D11" stroke-width="6"/><line x1="278.0" y1="462.0" x2="302.0" y2="462.0" stroke-opacity="0.55" fill="none" stroke="#3B6D11" stroke-width="6"/><line x1="318.0" y1="462.0" x2="342.0" y2="462.0" stroke-opacity="0.55" fill="none" stroke="#3B6D11" stroke-width="6"/><line x1="358.0" y1="462.0" x2="382.0" y2="462.0" stroke-opacity="0.55" fill="none" stroke="#3B6D11" stroke-width="6"/><path d="M197.0 296 q16 -22 34 -6" stroke-opacity="0.5" fill="none" stroke="#3B6D11" stroke-width="5"/><path d="M433.0 296 q-16 -22 -34 -6" stroke-opacity="0.5" fill="none" stroke="#3B6D11" stroke-width="5"/><path d="M289.0 322 q-62 6 -84 34" fill="none" stroke="#173404" stroke-width="12"/><path d="M341.0 322 q62 6 84 34" fill="none" stroke="#173404" stroke-width="12"/><path d="M281.4 408.0 Q281.4 318.4 315.0 318.4 Q348.6 318.4 348.6 408.0 Z" fill="#173404" fill-opacity="1.0"/><circle cx="315.0" cy="283.2" r="24.8" fill="#173404" fill-opacity="1.0"/></g></g></g>
<rect x="60" y="150" width="630" height="600" rx="24" fill="none" stroke="#3B6D11" stroke-width="3"/>
<text x="375" y="726" text-anchor="middle" font-family="'Atkinson Hyperlegible','Atkinson Hyperlegible Next',sans-serif" font-size="17" fill="#93a1a1" letter-spacing="2">PLACEHOLDER ART · HUMAN ART WANTED</text>
<text x="60" y="852" font-family="'Atkinson Hyperlegible','Atkinson Hyperlegible Next',sans-serif" font-size="58" font-weight="700" fill="#002b36">stuck</text>
<text x="60" y="916" font-family="'Atkinson Hyperlegible','Atkinson Hyperlegible Next',sans-serif" font-size="29" fill="#586e75">I can't get going. That's okay.</text>
</svg>
