<svg xmlns="http://www.w3.org/2000/svg" viewBox="0 0 750 1050" width="750" height="1050">
<defs><clipPath id="art-window"><rect x="60" y="150" width="630" height="600" rx="24"/></clipPath></defs>
<rect x="0" y="0" width="750" height="1050" rx="48" fill="#eee8d5"/>
<rect x="60" y="60" width="34" height="34" rx="9" fill="#BA7517"/>
<text x="108" y="87" font-family="'Atkinson Hyperlegible','Atkinson Hyperlegible Next',sans-serif" font-size="30" font-weight="500" fill="#412402">weather</text>
<!-- The clip lives on an untransformed group: a clip-path resolves in the
     element's own user space, so putting both on one <g> would clip against
     the moved coordinates and shear the top off every picture. -->
<rect id="art" x="60" y="150" width="630" height="600" rx="24" fill="#fdf6e3"/>
<g id="art-illustration" clip-path="url(#art-window)"><g transform="translate(60 185)"><g stroke-linecap="round" stroke-linejoin="round"><circle cx="315.0" cy="296.0" r="210.0" fill="#BA7517" fill-opacity="0.08"/><circle cx="315.0" cy="296.0" r="166.0" fill="#BA7517" fill-opacity="0.13"/><circle cx="315.0" cy="296.0" r="122.0" fill="#BA7517" fill-opacity="0.18"/><circle cx="315.0" cy="296.0" r="78.0" fill="#BA7517" fill-opacity="0.23000000000000004"/><path d="M273.0 452.0 Q273.0 340.0 315.0 340.0 Q357.0 340.0 357.0 452.0 Z" fill="#412402" fill-opacity="1.0"/><circle cx="315.0" cy="296.0" r="31.0" fill="#412402" fill-opacity="1.0"/><path d="M349.0 360.0 Q373.2 351.0 393.0 330.0" fill="none" stroke="#412402" stroke-width="13.0"/><path d="M281.0 360.0 Q256.8 351.0 237.0 330.0" fill="none" stroke="#412402" stroke-width="13.0"/><rect x="253.0" y="300.0" width="124.0" height="86.0" rx="12.0" fill="#fdf6e3" stroke="#412402" stroke-width="6"/></g></g></g>
<rect x="60" y="150" width="630" height="600" rx="24" fill="none" stroke="#BA7517" stroke-width="3"/>
<text x="60" y="852" font-family="'Atkinson Hyperlegible','Atkinson Hyperlegible Next',sans-serif" font-size="58" font-weight="700" fill="#002b36">in the zone</text>
<text x="60" y="916" font-family="'Atkinson Hyperlegible','Atkinson Hyperlegible Next',sans-serif" font-size="29" fill="#586e75">Deep in it, and it feels good.</text>
</svg>
