<svg xmlns="http://www.w3.org/2000/svg" viewBox="0 0 750 1050" width="750" height="1050">
<defs><clipPath id="art-window"><rect x="60" y="150" width="630" height="600" rx="24"/></clipPath></defs>
<rect x="0" y="0" width="750" height="1050" rx="48" fill="#eee8d5"/>
<rect x="60" y="60" width="34" height="34" rx="9" fill="#BA7517"/>
<text x="108" y="87" font-family="'Atkinson Hyperlegible','Atkinson Hyperlegible Next',sans-serif" font-size="30" font-weight="500" fill="#412402">weather</text>
<!-- The clip lives on an untransformed group: a clip-path resolves in the
     element's own user space, so putting both on one <g> would clip against
     the moved coordinates and shear the top off every picture. -->
<rect id="art" x="60" y="150" width="630" height="600" rx="24" fill="#fdf6e3"/>
<g id="art-illustration" clip-path="url(#art-window)"><g transform="translate(60 185)"><g stroke-linecap="round" stroke-linejoin="round"><rect x="40.0" y="452.0" width="550.0" height="14.0" rx="7.0" fill="#BA7517" fill-opacity="0.13"/><line x1="40.0" y1="459.0" x2="590.0" y2="459.0" stroke-opacity="0.45" fill="none" stroke="#BA7517" stroke-width="3"/><path d="M238.2 452.0 Q238.2 337.8 281.0 337.8 Q323.8 337.8 323.8 452.0 Z" fill="#BA7517" fill-opacity="0.3"/><circle cx="281.0" cy="292.9" r="31.6" fill="#BA7517" fill-opacity="0.3"/><path d="M234.8 456.0 Q234.8 332.8 281.0 332.8 Q327.2 332.8 327.2 456.0 Z" fill="#BA7517" fill-opacity="0.14"/><circle cx="281.0" cy="284.4" r="34.1" fill="#BA7517" fill-opacity="0.14"/><path d="M242.4 448.0 Q242.4 345.0 281.0 345.0 Q319.6 345.0 319.6 448.0 Z" fill="#412402" fill-opacity="1.0"/><circle cx="281.0" cy="304.5" r="28.5" fill="#412402" fill-opacity="1.0"/><ellipse cx="465.0" cy="330.0" rx="40.0" ry="13.6" stroke-opacity="0.5" fill="none" stroke="#BA7517" stroke-width="5"/><ellipse cx="465.0" cy="330.0" rx="66.0" ry="22.4" stroke-opacity="0.38" fill="none" stroke="#BA7517" stroke-width="5"/><ellipse cx="465.0" cy="330.0" rx="92.0" ry="31.3" stroke-opacity="0.26" fill="none" stroke="#BA7517" stroke-width="5"/><path d="M511.0 140 Q501.0 178 487.0 198" stroke-opacity="0.6" fill="none" stroke="#BA7517" stroke-width="5"/><circle cx="483.0" cy="216.0" r="17.0" fill="#412402"/></g></g></g>
<rect x="60" y="150" width="630" height="600" rx="24" fill="none" stroke="#BA7517" stroke-width="3"/>
<text x="60" y="852" font-family="'Atkinson Hyperlegible','Atkinson Hyperlegible Next',sans-serif" font-size="58" font-weight="700" fill="#002b36">tender</text>
<text x="60" y="916" font-family="'Atkinson Hyperlegible','Atkinson Hyperlegible Next',sans-serif" font-size="29" fill="#586e75">A small thing hurt a lot right now.</text>
</svg>
